<svg xmlns="http://www.w3.org/2000/svg" viewBox="0 0 32 32" width="24" height="24" style="border-color: rgba(0,0,0,0);border-width: bpx;border-style: undefined" filter="none">
    
    <g>
    <path d="M24.363 28.8c1.361-0.001 2.464-1.104 2.464-2.465s-1.104-2.465-2.465-2.465c-0 0-0.001 0-0.001 0h0c-1.361 0.001-2.464 1.104-2.464 2.465s1.104 2.465 2.465 2.465c0 0 0.001 0 0.001 0h-0zM24.363 30.667c-2.392-0.001-4.331-1.94-4.331-4.332s1.939-4.332 4.332-4.332c0 0 0.001 0 0.001 0h-0c2.392 0.001 4.331 1.94 4.331 4.332s-1.939 4.332-4.332 4.332c-0 0-0.001 0-0.001 0h0zM21.339 6.532l-11.605 7.509 1.015 1.566 11.605-7.509zM9.581 18.505l11.759 7.186 0.973-1.594-11.759-7.184zM24.363 8.131c1.361 0 2.464-1.103 2.464-2.464v0c0-1.361-1.103-2.464-2.464-2.464s-2.464 1.103-2.464 2.464c0 1.361 1.103 2.464 2.464 2.464v0zM24.363 9.998c-2.392-0.001-4.331-1.94-4.331-4.332s1.939-4.332 4.332-4.332c0 0 0.001 0 0.001 0h-0c2.392 0.001 4.331 1.94 4.331 4.332s-1.939 4.332-4.332 4.332c-0 0-0.001 0-0.001 0h0zM7.664 18.592c1.34-0.029 2.415-1.122 2.415-2.466s-1.075-2.437-2.412-2.466l-0.003-0c-1.361 0-2.465 1.104-2.465 2.465s1.104 2.465 2.465 2.465v0zM7.664 20.459c-2.364-0.038-4.265-1.963-4.265-4.332s1.901-4.294 4.261-4.332l0.004-0c2.351 0.054 4.237 1.973 4.237 4.332s-1.885 4.278-4.232 4.332l-0.005 0z" fill="rgba(16.065,16.065,16.065,1)"></path>
    </g>
  </svg>