<svg xmlns="http://www.w3.org/2000/svg" viewBox="0 0 32 32" width="48" height="48" style="border-color: rgba(0,0,0,0);border-width: bpx;border-style: undefined" filter="none">
    
    <g>
    <path d="M15.989 14.75l4.4-4.4c0.347-0.347 0.91-0.347 1.257 0s0.347 0.91 0 1.257l-4.4 4.4 4.4 4.4c0.347 0.347 0.347 0.91 0 1.257s-0.91 0.347-1.257 0l-4.4-4.4-4.4 4.4c-0.347 0.347-0.91 0.347-1.257 0s-0.347-0.91 0-1.257l4.4-4.4-4.4-4.4c-0.347-0.347-0.347-0.91 0-1.257s0.91-0.347 1.257 0l4.4 4.4z" fill="rgba(154.01999999999998,154.01999999999998,154.01999999999998,1)"></path><path d="M16 28.444c6.873 0 12.444-5.572 12.444-12.444s-5.572-12.444-12.444-12.444c-6.873 0-12.444 5.572-12.444 12.444s5.572 12.444 12.444 12.444zM16 30.222c-7.855 0-14.222-6.367-14.222-14.222s6.367-14.222 14.222-14.222 14.222 6.367 14.222 14.222-6.367 14.222-14.222 14.222z" fill="rgba(154.01999999999998,154.01999999999998,154.01999999999998,1)"></path>
    </g>
  </svg>