<svg xmlns="http://www.w3.org/2000/svg" viewBox="0 0 32 32" width="66" height="66" style="border-color: rgba(0,0,0,0);border-width: bpx;border-style: undefined" filter="none">
    
    <g>
    <path d="M16 29.333c-7.364 0-13.333-5.969-13.333-13.333s5.969-13.333 13.333-13.333 13.333 5.969 13.333 13.333-5.969 13.333-13.333 13.333zM9.351 24.341c1.8 1.449 4.114 2.325 6.632 2.325 0.006 0 0.012 0 0.018 0h-0.001c2.627 0 5.031-0.949 6.889-2.523-1.692-1.735-4.052-2.811-6.664-2.811-0.004 0-0.008 0-0.013 0h0.001c-0.003 0-0.007 0-0.011 0-2.708 0-5.145 1.156-6.846 3.002l-0.006 0.006zM7.488 22.427c2.187-2.317 5.28-3.76 8.709-3.76 0.006 0 0.011 0 0.017 0h-0.001c0.005 0 0.010 0 0.016 0 3.307 0 6.301 1.342 8.467 3.512l0 0c1.233-1.717 1.971-3.861 1.971-6.178 0-5.891-4.776-10.667-10.667-10.667s-10.667 4.776-10.667 10.667c0 2.425 0.809 4.662 2.173 6.454l-0.019-0.026zM16 17.333c-2.946 0-5.333-2.388-5.333-5.333s2.388-5.333 5.333-5.333v0c2.946 0 5.333 2.388 5.333 5.333s-2.388 5.333-5.333 5.333v0zM16 14.667c1.473 0 2.667-1.194 2.667-2.667s-1.194-2.667-2.667-2.667v0c-1.473 0-2.667 1.194-2.667 2.667s1.194 2.667 2.667 2.667v0z" fill="rgba(220.065,222.105,223.125,1)"></path>
    </g>
  </svg>